{
  "accessors": [
    {
      "bufferView": 2,
      "componentType": 5126,
      "count": 14952,
      "max": [
        0.9992347359657288,
        0.9992347359657288,
        1.0667985677719116
      ],
      "min": [
        -0.9992347359657288,
        -0.9956625699996948,
        -0.999234676361084
      ],
      "type": "VEC3"
    },
    {
      "bufferView": 2,
      "byteOffset": 179424,
      "componentType": 5126,
      "count": 14952,
      "max": [
        1.0,
        1.0,
        1.0
      ],
      "min": [
        -1.0,
        -1.0,
        -1.0
      ],
      "type": "VEC3"
    },
    {
      "bufferView": 1,
      "componentType": 5126,
      "count": 14952,
      "max": [
        1.0000001192092896,
        1.0000001192092896
      ],
      "min": [
        -2.6822092991096724e-07,
        0.0
      ],
      "type": "VEC2"
    },
    {
      "bufferView": 0,
      "componentType": 5125,
      "count": 82368,
      "type": "SCALAR"
    },
    {
      "bufferView": 2,
      "byteOffset": 358848,
      "componentType": 5126,
      "count": 7370,
      "max": [
        1.0488662719726563,
        1.0488848686218262,
        9.684856414794922
      ],
      "min": [
        -1.0488662719726563,
        -1.0488848686218262,
        -1.0000005960464478
      ],
      "type": "VEC3"
    },
    {
      "bufferView": 2,
      "byteOffset": 447288,
      "componentType": 5126,
      "count": 7370,
      "max": [
        1.0,
        1.0,
        1.0
      ],
      "min": [
        -1.0,
        -1.0,
        -1.0
      ],
      "type": "VEC3"
    },
    {
      "bufferView": 1,
      "byteOffset": 119616,
      "componentType": 5126,
      "count": 7370,
      "max": [
        1.0000001192092896,
        1.0000001192092896
      ],
      "min": [
        -2.6822092991096724e-07,
        0.01000000536441803
      ],
      "type": "VEC2"
    },
    {
      "bufferView": 0,
      "byteOffset": 329472,
      "componentType": 5125,
      "count": 36960,
      "type": "SCALAR"
    },
    {
      "bufferView": 2,
      "byteOffset": 535728,
      "componentType": 5126,
      "count": 5900,
      "max": [
        0.9374317526817322,
        0.9029456377029419,
        0.935302734375
      ],
      "min": [
        -2.610295057296753,
        -0.9018146991729736,
        -1.519588589668274
      ],
      "type": "VEC3"
    },
    {
      "bufferView": 2,
      "byteOffset": 606528,
      "componentType": 5126,
      "count": 5900,
      "max": [
        1.0,
        1.0,
        1.0
      ],
      "min": [
        -1.0,
        -1.0,
        -1.0
      ],
      "type": "VEC3"
    },
    {
      "bufferView": 1,
      "byteOffset": 178576,
      "componentType": 5126,
      "count": 5900,
      "max": [
        1.0000001192092896,
        113.00001525878906
      ],
      "min": [
        -2902.7109375,
        -1465.859375
      ],
      "type": "VEC2"
    },
    {
      "bufferView": 0,
      "byteOffset": 477312,
      "componentType": 5125,
      "count": 22620,
      "type": "SCALAR"
    },
    {
      "bufferView": 2,
      "byteOffset": 677328,
      "componentType": 5126,
      "count": 255,
      "max": [
        0.869594156742096,
        -0.9910706281661987,
        0.9100684523582458
      ],
      "min": [
        -0.8695940971374512,
        -0.9992347359657288,
        -0.9100685119628906
      ],
      "type": "VEC3"
    },
    {
      "bufferView": 2,
      "byteOffset": 680388,
      "componentType": 5126,
      "count": 255,
      "max": [
        0.016660723835229874,
        -0.9994921684265137,
        0.028513459488749504
      ],
      "min": [
        -0.016660241410136223,
        -1.0,
        -0.028512412682175636
      ],
      "type": "VEC3"
    },
    {
      "bufferView": 1,
      "byteOffset": 225776,
      "componentType": 5126,
      "count": 255,
      "max": [
        0.976489782333374,
        0.9695312976837158
      ],
      "min": [
        0.020963728427886963,
        0.030468735843896866
      ],
      "type": "VEC2"
    },
    {
      "bufferView": 0,
      "byteOffset": 567792,
      "componentType": 5125,
      "count": 1344,
      "type": "SCALAR"
    }
  ],
  "asset": {
    "extras": {
      "author": "Sm1yle (https://sketchfab.com/Sm1yle)",
      "license": "CC-BY-4.0 (http://creativecommons.org/licenses/by/4.0/)",
      "source": "https://sketchfab.com/3d-models/cleanser-bottle-02ab570acdb84b42b84f16306883ce9f",
      "title": "Cleanser Bottle"
    },
    "generator": "Sketchfab-16.21.0",
    "version": "2.0"
  },
  "bufferViews": [
    {
      "buffer": 0,
      "byteLength": 573168,
      "name": "floatBufferViews",
      "target": 34963
    },
    {
      "buffer": 0,
      "byteLength": 227816,
      "byteOffset": 573168,
      "byteStride": 8,
      "name": "floatBufferViews",
      "target": 34962
    },
    {
      "buffer": 0,
      "byteLength": 683448,
      "byteOffset": 800984,
      "byteStride": 12,
      "name": "floatBufferViews",
      "target": 34962
    }
  ],
  "buffers": [
    {
      "byteLength": 1484432,
      "uri": "scene.bin"
    }
  ],
  "images": [
    {
      "uri": "textures/Material_baseColor.jpeg"
    }
  ],
  "materials": [
    {
      "doubleSided": true,
      "name": "Material.003",
      "pbrMetallicRoughness": {
        "baseColorFactor": [
          0.800266,
          0.767987,
          0.490758,
          1.0
        ],
        "metallicFactor": 0.05333349587351123,
        "roughnessFactor": 0.03504772585973595
      }
    },
    {
      "doubleSided": true,
      "name": "Material.001",
      "pbrMetallicRoughness": {
        "metallicFactor": 0.0,
        "roughnessFactor": 0.041142982530994375
      }
    },
    {
      "doubleSided": true,
      "name": "Material",
      "pbrMetallicRoughness": {
        "baseColorTexture": {
          "index": 0
        },
        "metallicFactor": 0.0,
        "roughnessFactor": 0.01676195584596067
      }
    }
  ],
  "meshes": [
    {
      "name": "Cube_Material.003_0",
      "primitives": [
        {
          "attributes": {
            "NORMAL": 1,
            "POSITION": 0,
            "TEXCOORD_0": 2
          },
          "indices": 3,
          "material": 0,
          "mode": 4
        }
      ]
    },
    {
      "name": "Cylinder_Material.001_0",
      "primitives": [
        {
          "attributes": {
            "NORMAL": 5,
            "POSITION": 4,
            "TEXCOORD_0": 6
          },
          "indices": 7,
          "material": 1,
          "mode": 4
        }
      ]
    },
    {
      "name": "Cylinder.001_Material.001_0",
      "primitives": [
        {
          "attributes": {
            "NORMAL": 9,
            "POSITION": 8,
            "TEXCOORD_0": 10
          },
          "indices": 11,
          "material": 1,
          "mode": 4
        }
      ]
    },
    {
      "name": "Cube.001_Material_0",
      "primitives": [
        {
          "attributes": {
            "NORMAL": 13,
            "POSITION": 12,
            "TEXCOORD_0": 14
          },
          "indices": 15,
          "material": 2,
          "mode": 4
        }
      ]
    }
  ],
  "nodes": [
    {
      "children": [
        1
      ],
      "matrix": [
        1.0,
        0.0,
        0.0,
        0.0,
        0.0,
        2.220446049250313e-16,
        -1.0,
        0.0,
        0.0,
        1.0,
        2.220446049250313e-16,
        0.0,
        0.0,
        0.0,
        0.0,
        1.0
      ],
      "name": "Sketchfab_model"
    },
    {
      "children": [
        2
      ],
      "matrix": [
        0.009999999776482582,
        0.0,
        0.0,
        0.0,
        0.0,
        0.0,
        0.009999999776482582,
        0.0,
        0.0,
        -0.009999999776482582,
        0.0,
        0.0,
        0.0,
        0.0,
        0.0,
        1.0
      ],
      "name": "0cb91a6553564dd182a7350f13bd7dcf.fbx"
    },
    {
      "children": [
        3,
        5,
        7,
        9,
        11
      ],
      "name": "RootNode"
    },
    {
      "children": [
        4
      ],
      "matrix": [
        -65.1558127516791,
        -44.52713915455176,
        -61.417049289096546,
        0.0,
        -32.401349332924404,
        89.53957282709818,
        -30.5420854760369,
        0.0,
        68.59207001076241,
        8.666908837178815e-06,
        -72.76761921184274,
        0.0,
        735.88916015625,
        495.8309326171875,
        692.5791015625,
        1.0
      ],
      "name": "Camera"
    },
    {
      "name": "Object_4"
    },
    {
      "children": [
        6
      ],
      "matrix": [
        62.62676239013672,
        0.0,
        0.0,
        0.0,
        0.0,
        -7.5691274337502696e-06,
        -46.45897293090759,
        0.0,
        0.0,
        96.13142395019405,
        -1.5661796900869994e-05,
        0.0,
        0.0,
        95.90534210205078,
        0.0,
        1.0
      ],
      "name": "Cube"
    },
    {
      "mesh": 0,
      "name": "Cube_Material.003_0"
    },
    {
      "children": [
        8
      ],
      "matrix": [
        27.626827239990234,
        0.0,
        0.0,
        0.0,
        0.0,
        -4.500981463379964e-06,
        -27.62682723998987,
        0.0,
        0.0,
        7.0091128349303276,
        -1.1419294250008694e-06,
        0.0,
        0.0,
        195.97381591796875,
        0.0,
        1.0
      ],
      "name": "Cylinder"
    },
    {
      "mesh": 1,
      "name": "Cylinder_Material.001_0"
    },
    {
      "children": [
        10
      ],
      "matrix": [
        29.527780532836914,
        0.0,
        0.0,
        0.0,
        0.0,
        -4.810686065342684e-06,
        -29.527780532836523,
        0.0,
        0.0,
        6.720963954925448,
        -1.0949840137044786e-06,
        0.0,
        0.0,
        267.6388244628906,
        0.0,
        1.0
      ],
      "name": "Cylinder.001"
    },
    {
      "mesh": 2,
      "name": "Cylinder.001_Material.001_0"
    },
    {
      "children": [
        12
      ],
      "matrix": [
        62.62676239013672,
        0.0,
        0.0,
        0.0,
        0.0,
        -7.5691274337502696e-06,
        -46.45897293090759,
        0.0,
        0.0,
        96.13142395019405,
        -1.5661796900869994e-05,
        0.0,
        0.0,
        95.90534210205078,
        0.0,
        1.0
      ],
      "name": "Cube.001"
    },
    {
      "mesh": 3,
      "name": "Cube.001_Material_0"
    }
  ],
  "samplers": [
    {
      "magFilter": 9729,
      "minFilter": 9987,
      "wrapS": 10497,
      "wrapT": 10497
    }
  ],
  "scene": 0,
  "scenes": [
    {
      "name": "Sketchfab_Scene",
      "nodes": [
        0
      ]
    }
  ],
  "textures": [
    {
      "sampler": 0,
      "source": 0
    }
  ]
}
